<svg width="181" height="24" viewBox="0 0 181 24" fill="none" xmlns="http://www.w3.org/2000/svg">
<g clip-path="url(#clip0_205_4102)">
<path d="M112.3 19.7226C111.683 19.9325 111.045 20.0584 110.471 20.0584C108.599 20.0584 107.429 18.8203 107.429 16.8266V8.28558H112.576V5.64142H107.472V0.5L104.175 0.856752V5.64142H100.73V8.28558H104.175V16.8266C104.175 18.9042 104.728 20.4781 105.834 21.5274C106.855 22.4927 108.344 22.9754 110.151 22.8914C111.279 22.8704 112.172 22.7026 113.172 22.3668L112.3 19.7226Z" fill="#10303B"/>
<path d="M132.121 14.161C132.121 8.97759 128.314 5.24219 123.082 5.24219C120.445 5.24219 118.191 6.14456 116.553 7.86536C115.001 9.48124 114.15 11.7267 114.15 14.182C114.15 19.4283 117.829 23.1008 123.125 23.1008C128.421 23.0798 132.121 19.4073 132.121 14.161ZM123.104 20.1838C121.36 20.1838 119.871 19.5332 118.85 18.2951C117.936 17.2039 117.446 15.7349 117.446 14.161C117.446 11.1601 119.382 8.0962 123.104 8.0962C124.72 8.0962 126.209 8.76774 127.251 10.0059C128.208 11.1181 128.761 12.6291 128.761 14.161C128.782 17.057 126.996 20.1838 123.104 20.1838Z" fill="#10303B"/>
<path d="M45.5221 4.52578C45.5221 5.47629 44.7372 6.25078 43.7739 6.25078C42.8106 6.25078 42.0256 5.47629 42.0256 4.52578C42.0256 3.57527 42.8106 2.80078 43.7739 2.80078C44.7372 2.83599 45.5221 3.57527 45.5221 4.52578ZM43.7739 3.15282C42.9889 3.15282 42.3824 3.75129 42.3824 4.52578C42.3824 5.30027 42.9889 5.89874 43.7739 5.89874C44.5588 5.89874 45.1653 5.30027 45.1653 4.52578C45.1653 3.7865 44.5588 3.15282 43.7739 3.15282Z" fill="#10303B"/>
<path d="M57.5132 6.85823C59.4911 6.83725 61.15 7.40385 62.256 8.4951C63.3406 9.56535 63.9361 11.1393 63.9361 13.0279V22.7652H65.2548V13.007C65.2548 8.4951 62.2347 5.57812 57.577 5.57812C56.0032 5.59911 53.132 6.06079 51.5369 8.87283L51.154 9.54437V5.87192H49.8567V22.7652H51.1753V13.3427C51.2178 9.60732 53.8764 6.87922 57.5132 6.85823Z" fill="#10303B"/>
<path fill-rule="evenodd" clip-rule="evenodd" d="M82.2479 8.13884C80.7378 6.50198 78.4409 5.59961 75.7398 5.59961C70.8057 5.59961 67.0837 9.356 67.0837 14.3295C67.0837 19.45 70.6355 23.0175 75.7398 23.0175C78.6536 23.0175 81.4184 21.8423 82.971 19.9326L82.0565 19.1981C80.589 20.9609 77.8667 21.7374 75.7398 21.7374C71.784 21.7374 68.7852 19.0303 68.4449 15.148L68.4236 14.9381H84.162C84.4172 12.1261 83.7366 9.7757 82.2479 8.13884ZM68.4236 13.8259L68.4449 13.616C68.8277 9.52388 71.7414 6.79578 75.7398 6.79578C80.1849 6.79578 82.971 9.41895 82.9923 13.637V13.8469H68.4236V13.8259Z" fill="#10303B"/>
<path d="M97.5185 22.7663H99.1136L92.478 14.0154L92.5631 13.8895L98.6245 5.87305H96.9868L91.6911 13.092L86.3953 5.87305H84.779L90.9254 14.0154L84.2898 22.7663H85.8849L91.6911 14.8968L97.5185 22.7663Z" fill="#10303B"/>
<path d="M154.538 6.75426C157.941 6.75426 160.323 9.16758 160.323 12.6302V22.7871H161.642V12.6092C161.642 8.4331 158.728 5.53711 154.538 5.53711C151.667 5.53711 149.2 7.15299 148.264 9.67123L148.073 10.2169L147.903 9.67123C147.052 7.09003 144.691 5.53711 141.628 5.53711C139.183 5.53711 137.162 6.67032 136.12 8.64295L135.759 9.33547L135.716 5.87288H134.482V22.7661H135.801V12.7141C135.801 9.20956 138.183 6.77525 141.586 6.77525C145.01 6.77525 147.392 9.20956 147.392 12.7141V22.7661H148.711V12.7141C148.711 9.25153 151.157 6.75426 154.538 6.75426Z" fill="#10303B"/>
<path fill-rule="evenodd" clip-rule="evenodd" d="M178.975 8.13884C177.465 6.50198 175.168 5.59961 172.467 5.59961C167.533 5.59961 163.811 9.356 163.811 14.3295C163.811 19.45 167.363 23.0175 172.467 23.0175C175.381 23.0175 178.146 21.8423 179.698 19.9326L178.784 19.1981C177.316 20.9609 174.594 21.7374 172.467 21.7374C168.511 21.7374 165.512 19.0303 165.172 15.148L165.151 14.9381H180.889C181.123 12.1261 180.464 9.7757 178.975 8.13884ZM165.151 13.8259L165.172 13.616C165.555 9.52388 168.469 6.79578 172.467 6.79578C176.912 6.79578 179.698 9.41895 179.72 13.637V13.8469H165.151V13.8259Z" fill="#10303B"/>
<path d="M44.4539 12.2728C44.1562 10.1533 43.1779 8.22261 41.6466 6.71166C40.1153 5.20072 38.1586 4.23539 36.0105 3.94159C35.0535 3.81568 34.1177 3.81568 33.1819 3.94159C31.0125 4.23539 29.0771 5.20072 27.5458 6.71166L26.3336 7.90783V5.59944C26.3336 5.26367 26.2059 4.94889 25.972 4.69707C25.738 4.46623 25.419 4.34031 25.0787 4.34031H25.0575C24.7172 4.34031 24.3982 4.46623 24.1642 4.69707C23.9303 4.9279 23.7814 5.26367 23.8027 5.59944V10.573V10.9717C23.8027 11.3075 23.9303 11.6222 24.1855 11.8741C24.4194 12.1049 24.7384 12.2308 25.1 12.2518H30.5446C30.8849 12.2518 31.2039 12.1259 31.4379 11.8951C31.6718 11.6642 31.8207 11.3284 31.8207 10.9927C31.8207 10.6569 31.6931 10.3212 31.4379 10.0903C31.2039 9.85947 30.8849 9.71257 30.5446 9.71257C30.5446 9.71257 30.5446 9.71257 30.5234 9.71257H28.1626L29.3749 8.51641C30.7573 7.15236 32.6289 6.39688 34.5856 6.39688C36.5635 6.39688 38.4138 7.15236 39.8175 8.53739C42.71 11.3914 42.71 16.0082 39.8388 18.8622C36.9676 21.6952 32.2673 21.6952 29.3962 18.8622L17.0607 6.69068C15.5294 5.17973 13.5727 4.2144 11.4246 3.92061C10.4676 3.79469 9.53178 3.79469 8.61725 3.92061C6.46918 4.2144 4.51252 5.17973 2.98122 6.69068C1.44992 8.20163 0.471584 10.1323 0.173831 12.2308C0.0462229 13.1332 0.0462229 14.0775 0.173831 15.0009C0.471584 17.1204 1.44992 19.0301 2.98122 20.562C4.51252 22.073 6.46918 23.0383 8.61725 23.3321C9.59558 23.458 10.5526 23.479 11.4459 23.3531C13.6152 23.0593 15.5506 22.094 17.0819 20.583L18.2942 19.3868V21.7162C18.2942 22.052 18.4431 22.3878 18.677 22.6186C18.911 22.8494 19.23 22.9963 19.5916 22.9963C19.9319 22.9963 20.2509 22.8704 20.5061 22.6396C20.74 22.4087 20.8889 22.073 20.8889 21.7372V16.3649C20.8889 16.0292 20.7613 15.7144 20.5061 15.4626C20.2722 15.2317 19.9531 15.1058 19.6128 15.1058H14.1682C13.8279 15.1058 13.4876 15.2317 13.2537 15.4836C13.0197 15.7144 12.8709 16.0292 12.8709 16.3649C12.8709 16.7007 12.9985 17.0155 13.2324 17.2673C13.4664 17.4982 13.7854 17.6241 14.1257 17.6241H16.4652L15.2529 18.8202C13.8917 20.1843 12.0201 20.9398 10.0422 20.9398C8.06428 20.9398 6.21396 20.1843 4.81027 18.7992C3.40658 17.4352 2.64093 15.5885 2.64093 13.6368C2.64093 11.6852 3.40658 9.85947 4.81027 8.47444C7.68146 5.64141 12.3817 5.62042 15.2529 8.47444L27.5671 20.625C29.0984 22.1359 31.0551 23.1013 33.2031 23.395C33.671 23.458 34.1389 23.5 34.6068 23.5C35.0747 23.5 35.5426 23.458 36.0105 23.395C38.1586 23.1013 40.1153 22.1359 41.6466 20.625C43.1779 19.114 44.1562 17.1834 44.4539 15.0638C44.5816 14.1405 44.5816 13.1961 44.4539 12.2728Z" fill="#10303B"/>
<path d="M43.8 3.94922C43.9521 3.94922 44.07 3.98174 44.1537 4.04679C44.2388 4.11068 44.2813 4.19606 44.2813 4.30293C44.2813 4.42025 44.2394 4.5097 44.1556 4.57126C44.0719 4.63283 43.954 4.66361 43.8019 4.66361L43.771 4.67929H43.5178V5.09922H43.1912V3.94922H43.8ZM43.7536 4.46672C43.818 4.46672 43.8664 4.4551 43.8986 4.43187C43.9308 4.40864 43.9469 4.37147 43.9469 4.32036C43.9469 4.27041 43.9308 4.23381 43.8986 4.21058C43.8664 4.18735 43.818 4.17573 43.7536 4.17573H43.5178V4.46672H43.7536ZM43.9488 4.52945L44.3567 5.09922H43.9894L43.6628 4.59566L43.9488 4.52945Z" fill="#10303B"/>
</g>
<defs>
<clipPath id="clip0_205_4102">
<rect width="180.864" height="23" fill="white" transform="translate(0.0681152 0.5)"/>
</clipPath>
</defs>
</svg>
