<?xml version="1.0" encoding="UTF-8" standalone="no"?>
<!DOCTYPE svg PUBLIC "-//W3C//DTD SVG 1.1//EN" "http://www.w3.org/Graphics/SVG/1.1/DTD/svg11.dtd">
<svg width="100%" height="100%" viewBox="0 0 45 20" version="1.1" xmlns="http://www.w3.org/2000/svg" xmlns:xlink="http://www.w3.org/1999/xlink" xml:space="preserve" xmlns:serif="http://www.serif.com/" style="fill-rule:evenodd;clip-rule:evenodd;stroke-linejoin:round;stroke-miterlimit:2;">
    <g transform="matrix(1,0,0,1,-0.0781249,-2.16309)">
        <g transform="matrix(1,0,0,1,0,-1.66309)">
            <path d="M44.454,12.273C44.156,10.153 43.178,8.223 41.647,6.712C40.115,5.201 38.159,4.235 36.011,3.942C35.054,3.816 34.118,3.816 33.182,3.942C31.013,4.235 29.077,5.201 27.546,6.712L26.334,7.908L26.334,5.599C26.334,5.264 26.206,4.949 25.972,4.697C25.738,4.466 25.419,4.34 25.079,4.34L25.058,4.34C24.717,4.34 24.398,4.466 24.164,4.697C23.93,4.928 23.781,5.264 23.803,5.599L23.803,10.972C23.803,11.307 23.93,11.622 24.186,11.874C24.419,12.105 24.738,12.231 25.1,12.252L30.545,12.252C30.885,12.252 31.204,12.126 31.438,11.895C31.672,11.664 31.821,11.328 31.821,10.993C31.821,10.657 31.693,10.321 31.438,10.09C31.204,9.859 30.885,9.713 30.545,9.713L28.163,9.713L29.375,8.516C30.757,7.152 32.629,6.397 34.586,6.397C36.564,6.397 38.414,7.152 39.818,8.537C42.71,11.391 42.71,16.008 39.839,18.862C36.968,21.695 32.267,21.695 29.396,18.862L17.061,6.691C15.529,5.18 13.573,4.214 11.425,3.921C10.468,3.795 9.532,3.795 8.617,3.921C6.469,4.214 4.513,5.18 2.981,6.691C1.45,8.202 0.472,10.132 0.174,12.231C0.046,13.133 0.046,14.078 0.174,15.001C0.472,17.12 1.45,19.03 2.981,20.562C4.513,22.073 6.469,23.038 8.617,23.332C9.596,23.458 10.553,23.479 11.446,23.353C13.615,23.059 15.551,22.094 17.082,20.583L18.294,19.387L18.294,21.716C18.294,22.052 18.443,22.388 18.677,22.619C18.911,22.849 19.23,22.996 19.592,22.996C19.932,22.996 20.251,22.87 20.506,22.64C20.74,22.409 20.889,22.073 20.889,21.737L20.889,16.365C20.889,16.029 20.761,15.714 20.506,15.463C20.272,15.232 19.953,15.106 19.613,15.106L14.168,15.106C13.828,15.106 13.488,15.232 13.254,15.484C13.02,15.714 12.871,16.029 12.871,16.365C12.871,16.701 12.999,17.016 13.232,17.267C13.466,17.498 13.785,17.624 14.126,17.624L16.465,17.624L15.253,18.82C13.892,20.184 12.02,20.94 10.042,20.94C8.064,20.94 6.214,20.184 4.81,18.799C3.407,17.435 2.641,15.589 2.641,13.637C2.641,11.685 3.407,9.859 4.81,8.474C7.681,5.641 12.382,5.62 15.253,8.474L27.567,20.625C29.098,22.136 31.055,23.101 33.203,23.395C33.671,23.458 34.139,23.5 34.607,23.5C35.075,23.5 35.543,23.458 36.011,23.395C38.159,23.101 40.115,22.136 41.647,20.625C43.178,19.114 44.156,17.183 44.454,15.064C44.582,14.141 44.582,13.196 44.454,12.273Z" style="fill:white;fill-rule:nonzero;"/>
        </g>
    </g>
</svg>
